PathFileType	4	(X/Y/Z)	/private/var/folders/ty/39vw2z0n5t95rf49mx2f_75w0000gn/T/tmpv4vay5ru_Sports2D/tmpv4vay5ru_Sports2D_px_person00.trc
DataRate	CameraRate	NumFrames	NumMarkers	Units	OrigDataRate	OrigDataStartFrame	OrigNumFrames
60	60	4	22	m	60	137	220
Frame#	Time	Hip			RHip			RKnee			RAnkle			RBigToe			RSmallToe			RHeel			LHip			LKnee			LAnkle			LBigToe			LSmallToe			LHeel			Neck			Head			Nose			RShoulder			RElbow			RWrist			LShoulder			LElbow			LWrist		
		X1	Y1	Z1	X2	Y2	Z2	X3	Y3	Z3	X4	Y4	Z4	X5	Y5	Z5	X6	Y6	Z6	X7	Y7	Z7	X8	Y8	Z8	X9	Y9	Z9	X10	Y10	Z10	X11	Y11	Z11	X12	Y12	Z12	X13	Y13	Z13	X14	Y14	Z14	X15	Y15	Z15	X16	Y16	Z16	X17	Y17	Z17	X18	Y18	Z18	X19	Y19	Z19	X20	Y20	Z20	X21	Y21	Z21	X22	Y22	Z22
137	2.283333333333333	1410.5164587700333	605.0713415831246	0.0	1392.6800181276012	612.1931624733612	0.0	1416.7280834387961	714.0929548855363	0.0	1517.1558976355823	754.7215824363735	0.0	1511.1881241587769	795.5857169140747	0.0	1509.1896515038084	791.8758066031711	0.0	1536.184707498205	760.1262546651718	0.0	1428.1881358344094	594.1427885633832	0.0	1418.0316311737367	712.2295948153386	0.0	1522.4419518973698	727.4411790912841	0.0	1540.7541451662355	773.0121131324618	0.0	1547.0868015509652	764.222733916327	0.0	1536.9930971897998	721.3575072974086	0.0	1330.6006113904614	507.48090758592326	0.0	1289.1213579569765	441.0069595795031	0.0	1292.347665959704	484.58127673024933	0.0	1291.836214855446	524.9658552265063	0.0	1233.8808221578333	568.4548352836885	0.0	1237.8311487506012	547.2704295340606	0.0	1378.2857534108177	507.72826165837057	0.0	1453.5683467880883	546.1568146903641	0.0	1494.9600803429917	609.3029877180144	0.0
138	2.3	1404.478265820548	604.2770791423601	0.0	1389.0438856367564	610.169568844957	0.0	1419.7755790831711	712.5329059616545	0.0	1521.156470149075	755.4766898752557	0.0	1512.8075921868074	798.6110491859815	0.0	1514.2953355856102	793.0867272089503	0.0	1541.5986902297925	760.9587693735211	0.0	1419.6071007354813	593.6737358323661	0.0	1395.1365111304638	707.2193349502446	0.0	1504.7715382000292	734.4186248465452	0.0	1517.7706488741162	779.9604707676683	0.0	1523.7747753617678	773.0054977168919	0.0	1522.521645884268	730.239009305822	0.0	1321.5477302263544	506.03860030532815	0.0	1280.4813037055685	439.1327951278296	0.0	1282.3628049955862	482.35665969885775	0.0	1284.0854262112218	523.4401761808366	0.0	1225.506326437059	564.1644394359404	0.0	1226.9973575910778	554.4786284353544	0.0	1367.7837675437752	506.0925562960726	0.0	1448.4268276165174	538.80611815291	0.0	1498.216804152667	598.5000651416382	0.0
139	2.3166666666666664	1396.8461819419226	603.6996282156193	0.0	1383.481078175609	608.1145057107459	0.0	1422.6218068540688	711.0710058835083	0.0	1523.7281901148974	755.4744323626442	0.0	1514.6894266361599	800.8715733342061	0.0	1518.7088590702829	793.8653199390236	0.0	1544.833015175822	760.2323881106702	0.0	1410.0322166038407	593.250984500731	0.0	1373.6138050003694	701.1085398913651	0.0	1484.7023875625468	742.4582319405647	0.0	1491.2927205184685	787.14607809886	0.0	1497.7177939345056	782.1218918118088	0.0	1504.2984638535063	740.6668486755266	0.0	1312.747828041069	504.2944460482519	0.0	1272.5764798842358	436.76927746211925	0.0	1272.7514034307387	479.8225690133068	0.0	1275.9103130746537	521.1454424523034	0.0	1217.6655338786895	559.0315909878625	0.0	1213.5396312622465	563.3994027692593	0.0	1357.631199653578	504.3390233190775	0.0	1442.0627755125251	533.4173100181689	0.0	1498.1023127803746	590.113018994584	0.0
140	2.3333333333333335	1387.4630625920759	603.489765912236	0.0	1375.4514115024922	606.5644774975996	0.0	1424.128680398217	709.6710371636585	0.0	1524.2367039184721	754.1539136831293	0.0	1517.32932683451	801.5105843212554	0.0	1522.3174385083034	793.8325012672904	0.0	1545.1422056774468	757.3699436736745	0.0	1399.5667045042	592.9534326973894	0.0	1354.3230732724908	694.8823951902393	0.0	1463.304263646677	751.2931177756486	0.0	1462.9399478322036	794.4182074963422	0.0	1470.6129946008766	791.1427244120772	0.0	1483.2508317959478	752.1994971716657	0.0	1304.1546853897548	502.12107525581166	0.0	1265.1168181608948	433.88753958009715	0.0	1263.5554693405713	476.84639438895596	0.0	1267.2191828854416	518.3067567205637	0.0	1210.2064596212392	554.2968280220861	0.0	1198.2264915226185	573.5421255693354	0.0	1348.0779973204587	502.4364571206361	0.0	1433.9975222271091	530.7012545145224	0.0	1493.00682573546	585.2666298433819	0.0
